<svg width="34" height="34" viewBox="0 0 34 34" fill="none" xmlns="http://www.w3.org/2000/svg">
<path d="M17.0003 5.66666C18.5032 5.66666 19.9446 6.26368 21.0073 7.32638C22.07 8.38909 22.667 9.83043 22.667 11.3333C22.667 12.8362 22.07 14.2776 21.0073 15.3403C19.9446 16.403 18.5032 17 17.0003 17C15.4974 17 14.0561 16.403 12.9934 15.3403C11.9307 14.2776 11.3337 12.8362 11.3337 11.3333C11.3337 9.83043 11.9307 8.38909 12.9934 7.32638C14.0561 6.26368 15.4974 5.66666 17.0003 5.66666ZM17.0003 19.8333C23.262 19.8333 28.3337 22.3692 28.3337 25.5V28.3333H5.66699V25.5C5.66699 22.3692 10.7387 19.8333 17.0003 19.8333Z" fill="#A4B1C3"/>
</svg>
