<svg width="30" height="28" viewBox="0 0 30 28" fill="none" xmlns="http://www.w3.org/2000/svg">
<path d="M5.33496 27.9297C2.27344 27.9297 0.735352 26.4209 0.735352 23.3887V5.50293C0.735352 2.4707 2.27344 0.961914 5.33496 0.961914H25.3447C28.4062 0.961914 29.9297 2.48535 29.9297 5.50293V23.3887C29.9297 26.4062 28.4062 27.9297 25.3447 27.9297H5.33496ZM5.11523 25.5713H25.5352C26.8389 25.5713 27.5713 24.8828 27.5713 23.5205V9.70703C27.5713 8.35938 26.8389 7.65625 25.5352 7.65625H5.11523C3.81152 7.65625 3.09375 8.35938 3.09375 9.70703V23.5205C3.09375 24.8828 3.81152 25.5713 5.11523 25.5713ZM12.4834 12.915C11.9707 12.915 11.7949 12.7686 11.7949 12.2559V11.3916C11.7949 10.8789 11.9707 10.7178 12.4834 10.7178H13.3477C13.8604 10.7178 14.0215 10.8789 14.0215 11.3916V12.2559C14.0215 12.7686 13.8604 12.915 13.3477 12.915H12.4834ZM17.3467 12.915C16.834 12.915 16.6582 12.7686 16.6582 12.2559V11.3916C16.6582 10.8789 16.834 10.7178 17.3467 10.7178H18.2109C18.7236 10.7178 18.8994 10.8789 18.8994 11.3916V12.2559C18.8994 12.7686 18.7236 12.915 18.2109 12.915H17.3467ZM22.21 12.915C21.6973 12.915 21.5361 12.7686 21.5361 12.2559V11.3916C21.5361 10.8789 21.6973 10.7178 22.21 10.7178H23.0742C23.5869 10.7178 23.7627 10.8789 23.7627 11.3916V12.2559C23.7627 12.7686 23.5869 12.915 23.0742 12.915H22.21ZM7.62012 17.7051C7.09277 17.7051 6.93164 17.5586 6.93164 17.0459V16.1816C6.93164 15.6689 7.09277 15.5225 7.62012 15.5225H8.46973C8.99707 15.5225 9.1582 15.6689 9.1582 16.1816V17.0459C9.1582 17.5586 8.99707 17.7051 8.46973 17.7051H7.62012ZM12.4834 17.7051C11.9707 17.7051 11.7949 17.5586 11.7949 17.0459V16.1816C11.7949 15.6689 11.9707 15.5225 12.4834 15.5225H13.3477C13.8604 15.5225 14.0215 15.6689 14.0215 16.1816V17.0459C14.0215 17.5586 13.8604 17.7051 13.3477 17.7051H12.4834ZM17.3467 17.7051C16.834 17.7051 16.6582 17.5586 16.6582 17.0459V16.1816C16.6582 15.6689 16.834 15.5225 17.3467 15.5225H18.2109C18.7236 15.5225 18.8994 15.6689 18.8994 16.1816V17.0459C18.8994 17.5586 18.7236 17.7051 18.2109 17.7051H17.3467ZM22.21 17.7051C21.6973 17.7051 21.5361 17.5586 21.5361 17.0459V16.1816C21.5361 15.6689 21.6973 15.5225 22.21 15.5225H23.0742C23.5869 15.5225 23.7627 15.6689 23.7627 16.1816V17.0459C23.7627 17.5586 23.5869 17.7051 23.0742 17.7051H22.21ZM7.62012 22.5098C7.09277 22.5098 6.93164 22.3486 6.93164 21.8359V20.9717C6.93164 20.459 7.09277 20.3125 7.62012 20.3125H8.46973C8.99707 20.3125 9.1582 20.459 9.1582 20.9717V21.8359C9.1582 22.3486 8.99707 22.5098 8.46973 22.5098H7.62012ZM12.4834 22.5098C11.9707 22.5098 11.7949 22.3486 11.7949 21.8359V20.9717C11.7949 20.459 11.9707 20.3125 12.4834 20.3125H13.3477C13.8604 20.3125 14.0215 20.459 14.0215 20.9717V21.8359C14.0215 22.3486 13.8604 22.5098 13.3477 22.5098H12.4834ZM17.3467 22.5098C16.834 22.5098 16.6582 22.3486 16.6582 21.8359V20.9717C16.6582 20.459 16.834 20.3125 17.3467 20.3125H18.2109C18.7236 20.3125 18.8994 20.459 18.8994 20.9717V21.8359C18.8994 22.3486 18.7236 22.5098 18.2109 22.5098H17.3467Z" fill="#A4B1C3"/>
</svg>
