<svg width="21" height="18" viewBox="0 0 21 18" fill="none" xmlns="http://www.w3.org/2000/svg">
<path d="M10.2374 9.50497L5.23738 4.50497L7.88941 1.85294C8.41306 1.32929 8.97049 0.977378 9.56171 0.797197C10.1586 0.611387 10.7526 0.600125 11.3438 0.763414C11.935 0.921071 12.484 1.25046 12.9908 1.75159C13.4919 2.25272 13.8213 2.79889 13.9789 3.3901C14.1422 3.97569 14.131 4.56972 13.9452 5.1722C13.765 5.76904 13.4131 6.32929 12.8894 6.85294L10.2374 9.50497ZM9.35056 10.4002L6.69009 13.0607C6.16644 13.5787 5.60619 13.9306 5.00934 14.1165C4.41813 14.2966 3.82691 14.3079 3.23569 14.1502C2.64448 13.987 2.09549 13.6547 1.58873 13.1536C1.08761 12.6581 0.755401 12.1148 0.592113 11.5235C0.434456 10.9323 0.445717 10.3383 0.625897 9.74145C0.806077 9.13898 1.16081 8.57591 1.69009 8.05227L4.34211 5.39179L9.35056 10.4002ZM20.381 12.5708H11.6225C11.7182 11.8558 11.9716 11.211 12.3827 10.6367C12.7937 10.0624 13.3117 9.60632 13.9367 9.26848C14.5673 8.93064 15.2543 8.76172 15.9975 8.76172C16.7464 8.76172 17.4333 8.93064 18.0583 9.26848C18.6833 9.60632 19.2013 10.0624 19.6124 10.6367C20.0234 11.211 20.2796 11.8558 20.381 12.5708ZM20.381 13.804C20.2796 14.5247 20.0234 15.1722 19.6124 15.7465C19.207 16.3208 18.689 16.7769 18.0583 17.1148C17.4333 17.4526 16.7464 17.6215 15.9975 17.6215C15.2486 17.6215 14.5617 17.4526 13.9367 17.1148C13.3117 16.7769 12.7937 16.318 12.3827 15.7381C11.9772 15.1638 11.7239 14.519 11.6225 13.804H20.381Z" fill="#75CDE7"/>
</svg>
