<svg width="34" height="34" viewBox="0 0 34 34" fill="none" xmlns="http://www.w3.org/2000/svg">
<path d="M13.43 4.91406C11.0307 3.76855 7.67723 3.20742 3.1875 3.1875C2.76408 3.18175 2.34896 3.30522 1.9975 3.54144C1.70903 3.73643 1.47288 3.99932 1.30985 4.30699C1.14681 4.61465 1.06187 4.95766 1.0625 5.30586V24.3047C1.0625 25.589 1.97625 26.5578 3.1875 26.5578C7.907 26.5578 12.6411 26.9988 15.4766 29.6789C15.5154 29.7158 15.5642 29.7404 15.6169 29.7498C15.6695 29.7591 15.7238 29.7528 15.7729 29.7315C15.822 29.7103 15.8638 29.6751 15.893 29.6304C15.9223 29.5856 15.9378 29.5332 15.9375 29.4797V7.09351C15.9376 6.94248 15.9052 6.7932 15.8427 6.65573C15.7802 6.51826 15.6888 6.39581 15.5749 6.29664C14.9254 5.74137 14.2039 5.27632 13.43 4.91406ZM32.0025 3.53945C31.6509 3.30381 31.2357 3.18103 30.8125 3.1875C26.3228 3.20742 22.9693 3.7659 20.57 4.91406C19.7961 5.27565 19.0744 5.7398 18.4244 6.29398C18.3107 6.3933 18.2196 6.51579 18.1572 6.65324C18.0948 6.79068 18.0625 6.9399 18.0625 7.09086V29.4784C18.0625 29.5298 18.0776 29.5801 18.106 29.6229C18.1345 29.6657 18.1749 29.6992 18.2223 29.7191C18.2697 29.739 18.3219 29.7445 18.3724 29.7349C18.4229 29.7253 18.4694 29.701 18.5061 29.665C20.2107 27.9716 23.2023 26.5559 30.8152 26.5565C31.3787 26.5565 31.9192 26.3326 32.3178 25.9341C32.7163 25.5356 32.9402 24.9951 32.9402 24.4315V5.30652C32.9409 4.95764 32.8558 4.61393 32.6923 4.30575C32.5287 3.99757 32.2918 3.73439 32.0025 3.53945Z" fill="#A4B1C3"/>
</svg>
